<svg version="1.1" xmlns="http://www.w3.org/2000/svg" xmlns:xlink="http://www.w3.org/1999/xlink" width="480" height="360" viewBox="0,0,480,360"><g transform=""><g data-paper-data="{&quot;isPaintingLayer&quot;:true}" fill-rule="nonzero" stroke-linecap="butt" stroke-linejoin="miter" stroke-miterlimit="10" stroke-dasharray="" stroke-dashoffset="0" style="mix-blend-mode: normal"><path d="M0,360v-360h480v360z" fill="#000000" stroke="none" stroke-width="0"/><text transform="translate(111.77367,51.60526) scale(0.93337,0.93337)" font-size="40" xml:space="preserve" fill="#585858" fill-rule="nonzero" stroke="none" stroke-width="1" stroke-linecap="butt" stroke-linejoin="miter" stroke-miterlimit="10" stroke-dasharray="" stroke-dashoffset="0" font-family="Sans Serif" font-weight="normal" text-anchor="start" style="mix-blend-mode: normal"><tspan x="0" dy="0">settings menu</tspan></text><path d="M196.91922,179c0,-23.79285 19.28792,-43.08078 43.08078,-43.08078c23.79285,0 43.08078,19.28792 43.08078,43.08078c0,23.79285 -19.28792,43.08078 -43.08078,43.08078c-23.79285,0 -43.08078,-19.28792 -43.08078,-43.08078z" fill="none" stroke="#ffffff" stroke-width="7.5"/><path d="M201.76791,119.07366c13.46253,-2.25416 13.51554,-30.40996 13.51554,-30.40996h51.52799c0,0 -3.08376,13.95503 9.29193,28.72052c1.58455,1.89053 25.78548,-7.08604 25.78548,-7.08604l29.45071,42.97493c0,0 -28.60457,15.90929 -28.92121,25.02353c-0.26362,7.58834 27.15113,25.92767 27.15113,25.92767l-24.32037,42.62879c0,0 -20.91085,-13.60368 -29.17474,-9.66813c-10.31732,4.91346 -11.89391,32.15133 -11.89391,32.15133l-49.00012,-0.9883c0,0 -0.19523,-24.34425 -6.80711,-29.5173c-10.422,-8.15404 -30.41722,7.73752 -30.41722,7.73752l-29.29557,-39.91208c0,0 31.28673,-31.22287 27.80965,-33.70107c-24.98541,-17.80776 -27.19447,-22.6203 -27.19447,-22.6203l26.01721,-39.14665c0,0 20.82666,8.83131 26.47508,7.88554z" fill="none" stroke="#ffffff" stroke-width="7.5"/></g></g></svg>