<svg version="1.1" xmlns="http://www.w3.org/2000/svg" xmlns:xlink="http://www.w3.org/1999/xlink" width="35.80484" height="36.71043" viewBox="0,0,35.80484,36.71043"><g transform="translate(-222.09758,-161.64478)"><g data-paper-data="{&quot;isPaintingLayer&quot;:true}" fill-rule="nonzero" stroke="none" stroke-linecap="butt" stroke-linejoin="miter" stroke-miterlimit="10" stroke-dasharray="" stroke-dashoffset="0" style="mix-blend-mode: normal"><path d="M235.98922,197.6326c-9.57565,-2.26111 -15.50524,-11.85671 -13.24412,-21.43235c2.26111,-9.57565 11.85671,-15.50524 21.43235,-13.24412c9.57565,2.26111 15.50524,11.85671 13.24412,21.43235c-2.26111,9.57565 -11.85671,15.50524 -21.43235,13.24412z" fill="#ffda9e" stroke-width="1"/><path d="M238.78769,196.84406c0.31343,-0.5485 0.61289,-0.90628 0.90498,-1.20178c0.25393,-0.25689 0.50228,-0.4667 0.7494,-0.71382c0.41111,-0.41111 2.06765,-0.60914 1.53166,-0.8344c-0.4821,-0.20261 -1.08355,0.057 -1.56104,-0.15625c-1.41325,-0.63115 -0.11413,-2.37897 0.8109,-2.80315c0.8315,-0.3813 3.01905,-0.15341 2.57368,-0.95242c-0.31409,-0.56349 -1.61996,-0.77973 -1.40626,-1.74139c0.14771,-0.66471 1.49075,-0.7313 1.47612,-1.41207c-0.03775,-1.7575 -1.78168,-3.26061 -0.89867,-5.29152c0.53864,-1.23888 1.86882,-1.1049 3.01367,-1.08765c0.04846,0.00073 0.17506,0.05704 0.14404,0.01981c-1.47495,-1.77026 0.28303,-3.05874 -0.32094,-4.54467c-0.65529,-1.61219 -2.68952,-1.94903 -2.93073,-3.80316c-0.05283,-0.40609 -2.84887,-0.36803 -3.06595,-1.25185c-0.366,-1.49014 1.00456,-1.92009 2.11989,-2.53963c0.219,-0.12165 0.82514,-0.19915 0.64963,-0.37791c-1.34639,-1.37133 -6.92415,-6.69014 -1.98481,-6.50258c1.73439,0.06586 5.69811,4.72575 5.99312,5.80743c0.10909,0.4 -0.60457,0.89688 -0.32296,1.20118c1.34099,1.44906 3.8927,1.69447 4.85378,3.49649c0.5469,1.02544 -2.79807,2.70548 -1.68829,3.05045c0.87403,0.27169 3.30558,3.60441 3.19213,4.13889c-0.05207,0.24531 -0.13601,0.49378 -0.28265,0.69723c-0.31028,0.4305 -0.64533,0.45076 -1.12131,0.67171c-0.74134,0.34413 -0.85474,2.25257 -1.1169,3.30119c-0.13901,0.55603 -1.43273,0.58966 -1.28428,1.14325c0.23082,0.86079 1.05178,2.04355 0.77048,3.07364c-0.13698,0.5016 -1.50433,0.69132 -1.14119,1.06348c0.92588,0.94889 0.72491,1.69082 -0.24081,2.38284c-0.25635,0.1837 0.61514,0.15984 0.89656,0.30218c0.89538,0.45287 0.919,1.05127 0.69906,1.94675c-0.11557,0.47055 -2.36389,1.17585 -2.47811,1.2147c-0.94756,0.32232 -1.91253,0.59388 -2.85215,0.93866c-0.21476,0.0788 0.16174,0.43884 0.1591,0.66758c-0.0222,1.92192 -4.83789,1.85244 -5.22554,1.17406z" fill="#833d00" stroke-width="0.5"/><path d="M240.59374,198.1021c-9.83495,0.2819 -18.03626,-7.46239 -18.31815,-17.29733c-0.2819,-9.83495 7.46239,-18.03626 17.29733,-18.31815c0.4984,0.17588 8.75444,6.61965 8.51815,16.89733c-0.31804,13.83346 -5.26239,19.03626 -7.49733,18.71815z" fill="#ff0000" stroke-width="1"/><path d="M239.76725,198.16227c-9.93009,-0.17024 -17.83982,-8.40006 -17.66689,-18.17619c0.17292,-9.77613 7.47416,-17.67435 17.40425,-17.50409c0.23973,0.17024 -11.23896,5.36487 -10.90965,17.92188c0.3762,14.34519 12.8252,17.53115 11.17229,17.7584z" fill="#6b0000" stroke-width="1"/><path d="M247.97222,180.52342c-0.27778,3.58985 0.57941,1.56667 -0.94305,7.55555c-0.66004,3.01039 -7.14494,0.69882 -7.02082,-7.88889c0.09288,-6.42636 6.68024,-8.18298 7.34304,-6.16667c0.51134,1.55556 0.89777,2.92085 0.62082,6.5z" fill="#ffffff" stroke-width="0"/><path d="M247.75685,177.3444c0.05522,0.49694 -0.44173,0.55216 -0.44173,0.55216l-0.42453,0.04123c-1.88431,0.86599 -4.33716,0.63446 -2.7715,1.80548c0.8404,0.34503 3.01744,0.74533 3.19522,1.80145c0.17898,1.06329 -3.14085,0.98655 -4.02454,0.94179c0.77828,0.34692 3.3005,2.73439 3.51052,2.96981c0,0 0.33218,0.3737 -0.04152,0.70589c-0.3737,0.33218 -0.70589,-0.04152 -0.70589,-0.04152c-0.5845,-0.6602 -4.15284,-3.00083 -3.94288,-3.90496c0.41795,-1.79979 6.51186,0.24785 2.75967,-1.1338c-0.41681,-0.15348 -0.83742,-0.29789 -1.24671,-0.47041c-2.89026,-2.17142 0.98868,-2.76412 3.00627,-3.63896l0.57547,-0.06988c0,0 0.49694,-0.05522 0.55216,0.44173z" fill="#ff0000" stroke-width="0.5"/></g></g></svg>